<?xml version="1.0" encoding="utf-8"?>
<!-- Generator: Adobe Illustrator 19.2.0, SVG Export Plug-In . SVG Version: 6.00 Build 0)  -->
<svg version="1.1" id="Layer_1" xmlns="http://www.w3.org/2000/svg" xmlns:xlink="http://www.w3.org/1999/xlink" x="0px" y="0px"
	 viewBox="0 0 670 420" enable-background="new 0 0 670 420" xml:space="preserve">
<rect fill="#F1F2F2" width="670" height="420"/>
<g>
	<path fill="#204056" d="M219,78h-8c-1.1,0-2,0.9-2,2v20c0,1.1,0.9,2,2,2h24c1.1,0,2-0.9,2-2V84c0-1.1-0.9-2-2-2h-14v-2
		C221,78.9,220.1,78,219,78L219,78z M211,86v-6h8v4h16v2H211L211,86z"/>
</g>
<g enable-background="new    ">
	<path fill="#204056" d="M249.5,97h-1.1l-1.3-6.4h1.1l0.8,5l1.1-5h1.3l1,4.9l0.7-4.9h1l-1.2,6.4h-1.1l-1.1-5.6L249.5,97z"/>
	<path fill="#204056" d="M256.6,96.7c-0.4-0.3-0.8-0.7-1-1.2s-0.3-1.1-0.3-1.7s0.1-1.2,0.3-1.7s0.5-0.9,0.9-1.2s0.8-0.5,1.3-0.5
		c0.9,0,1.6,0.3,2,0.9s0.6,1.4,0.6,2.3V94h-4.1c0,0.7,0.2,1.2,0.5,1.7s0.8,0.7,1.4,0.7c0.4,0,1-0.3,1.7-0.7l0.4,0.7
		c-0.5,0.5-1.2,0.8-2.1,0.8C257.6,97.1,257,97,256.6,96.7z M259.4,93.2c-0.1-1.3-0.5-2-1.4-2c-1,0-1.5,0.7-1.6,2H259.4z"/>
	<path fill="#204056" d="M263.5,91.5c0.4-0.7,1.1-1.1,1.9-1.1s1.5,0.3,1.9,0.9s0.6,1.4,0.6,2.4c0,1.2-0.3,2.2-0.9,2.8
		c-0.4,0.5-1,0.7-1.7,0.7c-0.5,0-0.8-0.1-1.1-0.3s-0.5-0.4-0.8-0.8l0,0.9h-1.1v-9.1l1.1-0.1V91.5z M263.5,94.6
		c0.1,0.5,0.2,1,0.5,1.3c0.3,0.3,0.7,0.5,1.2,0.5c0.7,0,1.2-0.4,1.5-1.1c0.1-0.4,0.2-0.8,0.2-1.2s0-0.8,0-1c-0.1-0.5-0.2-1-0.5-1.3
		s-0.6-0.5-1.2-0.5c-0.9,0-1.4,0.4-1.6,1.3c-0.1,0.4-0.1,0.7-0.1,1.1S263.5,94.3,263.5,94.6z"/>
	<path fill="#204056" d="M274.2,94c0.3,0.3,0.4,0.7,0.4,1.3s-0.2,1-0.6,1.4s-1,0.5-1.6,0.5c-0.5,0-0.9-0.1-1.3-0.2s-0.8-0.3-1-0.4
		l0.3-0.8c0.2,0.1,0.4,0.2,0.8,0.3s0.7,0.2,1.2,0.2s0.7-0.1,1-0.3s0.4-0.4,0.4-0.7s-0.1-0.5-0.2-0.7s-0.4-0.3-0.7-0.4l-1.1-0.3
		c-0.6-0.2-1-0.4-1.3-0.7s-0.3-0.7-0.3-1.1s0.2-0.9,0.5-1.2s0.9-0.6,1.6-0.6h0.1c0.8,0,1.4,0.1,2,0.4l-0.2,0.8
		c-0.6-0.2-1.1-0.4-1.7-0.4c-0.4,0-0.7,0.1-0.9,0.3s-0.3,0.4-0.3,0.7s0.1,0.5,0.2,0.6s0.3,0.2,0.7,0.3l1.1,0.3
		C273.5,93.5,273.9,93.7,274.2,94z"/>
	<path fill="#204056" d="M277.3,91.4v-0.8h2.9v5.6h1.8V97h-4.9v-0.8h2v-4.8H277.3z M279,88.9v-0.6c0-0.1,0.1-0.3,0.2-0.4
		s0.3-0.2,0.5-0.2s0.3,0.1,0.5,0.2s0.2,0.2,0.2,0.4v0.6c0,0.1-0.1,0.3-0.2,0.4s-0.3,0.2-0.5,0.2s-0.3-0.1-0.5-0.2S279,89,279,88.9z"
		/>
	<path fill="#204056" d="M286.4,91.4v3c0,0.4,0,0.7,0.1,0.9s0.1,0.4,0.2,0.5s0.3,0.2,0.5,0.3s0.5,0.1,0.8,0.1h1.2l-0.1,0.8H288
		c-1.1,0-1.8-0.2-2.2-0.6c-0.2-0.3-0.4-0.7-0.4-1.3c0-0.3,0-0.6,0-1v-2.7h-1.8l0.1-0.8h1.7v-2.2l1.1-0.3v2.5h2.7v0.8H286.4z"/>
	<path fill="#204056" d="M292.6,96.7c-0.4-0.3-0.8-0.7-1-1.2s-0.3-1.1-0.3-1.7s0.1-1.2,0.3-1.7s0.5-0.9,0.9-1.2s0.8-0.5,1.3-0.5
		c0.9,0,1.6,0.3,2,0.9s0.6,1.4,0.6,2.3V94h-4.1c0,0.7,0.2,1.2,0.5,1.7s0.8,0.7,1.4,0.7c0.4,0,1-0.3,1.7-0.7l0.4,0.7
		c-0.5,0.5-1.2,0.8-2.1,0.8C293.6,97.1,293.1,97,292.6,96.7z M295.4,93.2c-0.1-1.3-0.5-2-1.4-2c-1,0-1.5,0.7-1.6,2H295.4z"/>
</g>
<g>
	<path fill="#204056" d="M319,148h-8c-1.1,0-2,0.9-2,2v20c0,1.1,0.9,2,2,2h24c1.1,0,2-0.9,2-2v-16c0-1.1-0.9-2-2-2h-14v-2
		C321,148.9,320.1,148,319,148L319,148z M311,156v-6h8v4h16v2H311L311,156z"/>
</g>
<g enable-background="new    ">
	<path fill="#59A1C9" d="M248.2,112.3v-0.7h2.4v4.7h1.5v0.7h-4.1v-0.7h1.7v-4H248.2z M249.6,110.2v-0.5c0-0.1,0.1-0.2,0.2-0.3
		c0.1-0.1,0.3-0.1,0.4-0.1s0.3,0,0.4,0.1c0.1,0.1,0.2,0.2,0.2,0.3v0.5c0,0.1-0.1,0.2-0.2,0.3c-0.1,0.1-0.3,0.1-0.4,0.1
		s-0.3,0-0.4-0.1C249.7,110.5,249.6,110.3,249.6,110.2z"/>
	<path fill="#59A1C9" d="M256.5,111.5c1.1,0,1.7,0.7,1.7,2.1v3.4h-0.9v-3.3c0-0.4,0-0.6-0.1-0.8s-0.1-0.3-0.2-0.4
		c-0.2-0.2-0.4-0.3-0.8-0.3c-0.4,0-0.7,0.1-1,0.3s-0.4,0.5-0.4,0.9v3.6H254v-5.4h0.8l0,0.6C255.2,111.7,255.7,111.5,256.5,111.5z"/>
	<path fill="#59A1C9" d="M263.3,112.4v-2.9l0.9-0.1v7.6h-0.9v-0.8c-0.4,0.6-0.9,1-1.5,1c-0.8,0-1.3-0.3-1.6-0.8s-0.5-1.2-0.5-2
		c0-1,0.3-1.7,0.8-2.2c0.4-0.4,0.8-0.5,1.4-0.5c0.4,0,0.7,0.1,1,0.2S263.2,112.1,263.3,112.4z M263.3,114.3c0-0.8-0.1-1.4-0.4-1.7
		c-0.2-0.3-0.6-0.4-1.1-0.4c-0.6,0-1,0.3-1.2,0.9c-0.1,0.3-0.2,0.8-0.2,1.2c0,1.4,0.5,2.1,1.4,2.1
		C262.8,116.4,263.3,115.7,263.3,114.3z"/>
	<path fill="#59A1C9" d="M267,116.7c-0.4-0.2-0.7-0.6-0.8-1c-0.2-0.4-0.3-0.9-0.3-1.4s0.1-1,0.3-1.4c0.2-0.4,0.4-0.8,0.8-1
		c0.3-0.3,0.7-0.4,1.1-0.4c0.8,0,1.3,0.3,1.7,0.8s0.5,1.2,0.5,1.9v0.3h-3.4c0,0.5,0.2,1,0.4,1.4s0.6,0.6,1.1,0.6
		c0.3,0,0.8-0.2,1.4-0.6l0.3,0.6c-0.4,0.4-1,0.6-1.7,0.6C267.8,117.1,267.4,117,267,116.7z M269.3,113.8c-0.1-1.1-0.4-1.6-1.2-1.6
		c-0.8,0-1.2,0.5-1.4,1.6H269.3z"/>
	<path fill="#59A1C9" d="M271.8,111.6h1l1.3,2.1l1.3-2.1h0.9l-1.6,2.6l1.7,2.8h-1l-1.3-2.1l-1.4,2.1h-1l1.8-2.7L271.8,111.6z"/>
	<path fill="#59A1C9" d="M280.7,117h-1.5v-1.5h1.5V117z"/>
	<path fill="#59A1C9" d="M288.1,113.8v3.2h-0.9v-3.1c0-0.7-0.1-1.1-0.3-1.4c-0.2-0.2-0.4-0.4-0.8-0.4c-0.4,0-0.7,0.1-0.9,0.4
		c-0.3,0.3-0.4,0.5-0.4,0.8v3.6h-0.9v-7.5l0.9-0.1v2.9c0.4-0.5,1-0.8,1.7-0.8C287.6,111.5,288.1,112.2,288.1,113.8z"/>
	<path fill="#59A1C9" d="M291.9,112.3v2.5c0,0.3,0,0.6,0.1,0.7s0.1,0.3,0.2,0.4s0.2,0.2,0.4,0.2s0.4,0.1,0.7,0.1h1l0,0.7h-0.9
		c-0.9,0-1.5-0.2-1.8-0.5c-0.2-0.2-0.3-0.6-0.4-1.1c0-0.2,0-0.5,0-0.8v-2.3h-1.5l0.1-0.7h1.4v-1.8l0.9-0.3v2.1h2.3v0.7H291.9z"/>
	<path fill="#59A1C9" d="M298.3,112.3c0.2-0.6,0.6-0.8,1.1-0.8c0.7,0,1.1,0.5,1.2,1.5c0,0.2,0,0.4,0,0.6v3.4h-0.8v-3.3
		c0-0.6,0-1-0.1-1.2c-0.1-0.2-0.2-0.2-0.2-0.3s-0.1,0-0.2,0c-0.3,0-0.5,0.2-0.6,0.5c-0.1,0.2-0.1,0.5-0.1,1v3.3h-0.7v-3.3
		c0-0.7-0.1-1.2-0.3-1.4c-0.1-0.1-0.2-0.2-0.4-0.2s-0.3,0.1-0.4,0.2c-0.2,0.3-0.3,0.6-0.3,1.1v3.5h-0.8v-5.4h0.7l0.1,0.7
		c0.1-0.2,0.2-0.5,0.4-0.6c0.2-0.2,0.4-0.3,0.6-0.3s0.5,0.1,0.6,0.2S298.2,112.1,298.3,112.3z"/>
	<path fill="#59A1C9" d="M306.1,117h-0.7c-0.6,0-1.1-0.1-1.3-0.2c-0.2-0.1-0.3-0.2-0.4-0.3c-0.2-0.3-0.4-0.8-0.4-1.7V110h-1.6v-0.7
		h2.5v5.5c0,0.6,0.1,1,0.2,1.2s0.3,0.2,0.4,0.3c0.2,0,0.4,0,0.5,0h0.8L306.1,117z"/>
</g>
<polyline fill="none" stroke="#204056" stroke-miterlimit="10" points="223.5,102 223.5,159.5 309,159.5 "/>
<g>
	<g>
		<line fill="none" stroke="#204056" stroke-miterlimit="10" x1="243" y1="117.5" x2="242.5" y2="117.5"/>
		
			<line fill="none" stroke="#204056" stroke-miterlimit="10" stroke-dasharray="0.95,1.9" x1="240.6" y1="117.5" x2="224.4" y2="117.5"/>
		<line fill="none" stroke="#204056" stroke-miterlimit="10" x1="223.5" y1="117.5" x2="223" y2="117.5"/>
	</g>
</g>
<g enable-background="new    ">
	<path fill="#204056" d="M352.9,166.6c-0.4,0.4-1,0.6-1.8,0.6c-0.5,0-0.9-0.1-1.3-0.3s-0.7-0.4-1-0.7c-0.5-0.7-0.8-1.4-0.8-2.4
		c0-0.6,0.1-1.2,0.4-1.7s0.6-0.9,1.1-1.2s1.1-0.5,1.8-0.5s1.2,0.2,1.6,0.6l-0.3,0.7c-0.4-0.3-1-0.5-1.5-0.5s-1,0.2-1.4,0.7
		s-0.6,1.1-0.6,1.8s0.2,1.4,0.6,1.8s0.8,0.7,1.4,0.7s1.1-0.2,1.5-0.5L352.9,166.6z"/>
	<path fill="#204056" d="M359.8,164c0.3,0.3,0.4,0.7,0.4,1.3s-0.2,1-0.6,1.4s-1,0.5-1.6,0.5c-0.5,0-0.9-0.1-1.3-0.2s-0.8-0.3-1-0.4
		l0.3-0.8c0.2,0.1,0.4,0.2,0.8,0.3s0.7,0.2,1.2,0.2s0.7-0.1,1-0.3s0.4-0.4,0.4-0.7s-0.1-0.5-0.2-0.7s-0.4-0.3-0.7-0.4l-1.1-0.3
		c-0.6-0.2-1-0.4-1.3-0.7s-0.3-0.7-0.3-1.1s0.2-0.9,0.5-1.2s0.9-0.6,1.6-0.6h0.1c0.8,0,1.4,0.1,2,0.4l-0.2,0.8
		c-0.6-0.2-1.1-0.4-1.7-0.4c-0.4,0-0.7,0.1-0.9,0.3s-0.3,0.4-0.3,0.7s0.1,0.5,0.2,0.6s0.3,0.2,0.7,0.3l1.1,0.3
		C359.1,163.5,359.5,163.7,359.8,164z"/>
	<path fill="#204056" d="M367,164c0.3,0.3,0.4,0.7,0.4,1.3s-0.2,1-0.6,1.4s-1,0.5-1.6,0.5c-0.5,0-0.9-0.1-1.3-0.2s-0.8-0.3-1-0.4
		l0.3-0.8c0.2,0.1,0.4,0.2,0.8,0.3s0.7,0.2,1.2,0.2s0.7-0.1,1-0.3s0.4-0.4,0.4-0.7s-0.1-0.5-0.2-0.7s-0.4-0.3-0.7-0.4l-1.1-0.3
		c-0.6-0.2-1-0.4-1.3-0.7s-0.3-0.7-0.3-1.1s0.2-0.9,0.5-1.2s0.9-0.6,1.6-0.6h0.1c0.8,0,1.4,0.1,2,0.4l-0.2,0.8
		c-0.6-0.2-1.1-0.4-1.7-0.4c-0.4,0-0.7,0.1-0.9,0.3s-0.3,0.4-0.3,0.7s0.1,0.5,0.2,0.6s0.3,0.2,0.7,0.3l1.1,0.3
		C366.3,163.5,366.7,163.7,367,164z"/>
</g>
<line fill="none" stroke="#204056" stroke-miterlimit="10" x1="323.5" y1="172" x2="323.5" y2="187.5"/>
<g enable-background="new    ">
	<path fill="#59A1C9" d="M350.3,182.3c0.2-0.6,0.6-0.8,1.1-0.8c0.7,0,1.1,0.5,1.2,1.5c0,0.2,0,0.4,0,0.6v3.4h-0.8v-3.3
		c0-0.6,0-1-0.1-1.2c-0.1-0.2-0.2-0.2-0.2-0.3c-0.1,0-0.1,0-0.2,0c-0.3,0-0.5,0.2-0.6,0.5c-0.1,0.2-0.1,0.5-0.1,1v3.3h-0.7v-3.3
		c0-0.7-0.1-1.2-0.3-1.4c-0.1-0.1-0.2-0.2-0.4-0.2c-0.2,0-0.3,0.1-0.4,0.2c-0.2,0.3-0.3,0.6-0.3,1.1v3.5h-0.8v-5.4h0.7l0.1,0.7
		c0.1-0.2,0.2-0.5,0.4-0.6c0.2-0.2,0.4-0.3,0.6-0.3c0.2,0,0.5,0.1,0.6,0.2C350.1,181.8,350.2,182.1,350.3,182.3z"/>
	<path fill="#59A1C9" d="M357.1,183.3c0-0.8-0.3-1.1-1-1.1c-0.3,0-0.6,0-1,0.1c-0.4,0.1-0.6,0.1-0.8,0.2l-0.2-0.7
		c0.7-0.2,1.3-0.3,1.9-0.3s1.1,0.1,1.4,0.4s0.5,0.7,0.5,1.2v3.9h-0.7l-0.1-0.6c-0.2,0.2-0.5,0.4-0.8,0.5c-0.3,0.1-0.6,0.2-1,0.2
		c-0.5,0-0.8-0.1-1.1-0.4c-0.3-0.3-0.4-0.7-0.4-1.2c0-0.5,0.2-0.9,0.6-1.1c0.3-0.2,0.5-0.3,0.8-0.3c0.3-0.1,0.7-0.1,1.2-0.2l0.7-0.1
		V183.3z M357.1,185.8v-1.4l-0.7,0.1c-0.5,0.1-0.9,0.1-1.1,0.2c-0.4,0.2-0.7,0.4-0.7,0.8c0,0.3,0.1,0.5,0.2,0.6s0.4,0.2,0.6,0.2
		C356.2,186.5,356.7,186.2,357.1,185.8z"/>
	<path fill="#59A1C9" d="M360.2,182.3v-0.7h2.4v4.7h1.5v0.7h-4.1v-0.7h1.7v-4H360.2z M361.6,180.2v-0.5c0-0.1,0.1-0.2,0.2-0.3
		c0.1-0.1,0.3-0.1,0.4-0.1s0.3,0,0.4,0.1c0.1,0.1,0.2,0.2,0.2,0.3v0.5c0,0.1-0.1,0.2-0.2,0.3c-0.1,0.1-0.3,0.1-0.4,0.1
		s-0.3,0-0.4-0.1C361.7,180.5,361.6,180.3,361.6,180.2z"/>
	<path fill="#59A1C9" d="M368.5,181.5c1.1,0,1.7,0.7,1.7,2.1v3.4h-0.9v-3.3c0-0.4,0-0.6-0.1-0.8s-0.1-0.3-0.2-0.4
		c-0.2-0.2-0.4-0.3-0.8-0.3c-0.4,0-0.7,0.1-1,0.3s-0.4,0.5-0.4,0.9v3.6H366v-5.4h0.8l0,0.6C367.2,181.7,367.7,181.5,368.5,181.5z"/>
	<path fill="#59A1C9" d="M374.7,187h-1.5v-1.5h1.5V187z"/>
	<path fill="#59A1C9" d="M381.9,186.6c-0.3,0.3-0.8,0.5-1.5,0.5c-0.4,0-0.8-0.1-1.1-0.2c-0.3-0.2-0.6-0.4-0.8-0.6
		c-0.4-0.5-0.7-1.2-0.7-2c0-0.5,0.1-1,0.3-1.4c0.2-0.4,0.5-0.8,0.9-1s0.9-0.4,1.5-0.4s1,0.2,1.4,0.5l-0.2,0.6
		c-0.4-0.3-0.8-0.4-1.3-0.4s-0.9,0.2-1.2,0.6c-0.3,0.4-0.5,0.9-0.5,1.5c0,0.6,0.2,1.1,0.5,1.5c0.3,0.4,0.7,0.6,1.2,0.6
		c0.5,0,0.9-0.1,1.3-0.4L381.9,186.6z"/>
	<path fill="#59A1C9" d="M387.7,184.5c0.2,0.2,0.3,0.6,0.3,1.1c0,0.5-0.2,0.8-0.5,1.1c-0.4,0.3-0.8,0.4-1.3,0.4
		c-0.4,0-0.8,0-1.1-0.1c-0.4-0.1-0.6-0.2-0.8-0.3l0.2-0.6c0.1,0.1,0.4,0.2,0.6,0.3c0.3,0.1,0.6,0.1,1,0.1c0.3,0,0.6-0.1,0.8-0.2
		c0.2-0.1,0.3-0.3,0.3-0.6s-0.1-0.4-0.2-0.6c-0.1-0.1-0.3-0.2-0.6-0.3l-0.9-0.2c-0.5-0.1-0.9-0.3-1-0.6c-0.2-0.2-0.3-0.6-0.3-0.9
		s0.2-0.7,0.5-1c0.3-0.3,0.7-0.5,1.3-0.5h0.1c0.6,0,1.2,0.1,1.7,0.4l-0.2,0.6c-0.5-0.2-1-0.3-1.4-0.3c-0.3,0-0.6,0.1-0.7,0.2
		c-0.2,0.1-0.3,0.3-0.3,0.6s0,0.4,0.1,0.5c0.1,0.1,0.3,0.2,0.6,0.3l0.9,0.2C387.1,184.1,387.5,184.3,387.7,184.5z"/>
	<path fill="#59A1C9" d="M393.7,184.5c0.2,0.2,0.3,0.6,0.3,1.1c0,0.5-0.2,0.8-0.5,1.1c-0.4,0.3-0.8,0.4-1.3,0.4
		c-0.4,0-0.8,0-1.1-0.1c-0.4-0.1-0.6-0.2-0.8-0.3l0.2-0.6c0.1,0.1,0.4,0.2,0.6,0.3c0.3,0.1,0.6,0.1,1,0.1c0.3,0,0.6-0.1,0.8-0.2
		c0.2-0.1,0.3-0.3,0.3-0.6s-0.1-0.4-0.2-0.6c-0.1-0.1-0.3-0.2-0.6-0.3l-0.9-0.2c-0.5-0.1-0.9-0.3-1-0.6c-0.2-0.2-0.3-0.6-0.3-0.9
		s0.2-0.7,0.5-1c0.3-0.3,0.7-0.5,1.3-0.5h0.1c0.6,0,1.2,0.1,1.7,0.4l-0.2,0.6c-0.5-0.2-1-0.3-1.4-0.3c-0.3,0-0.6,0.1-0.7,0.2
		c-0.2,0.1-0.3,0.3-0.3,0.6s0,0.4,0.1,0.5c0.1,0.1,0.3,0.2,0.6,0.3l0.9,0.2C393.1,184.1,393.5,184.3,393.7,184.5z"/>
</g>
<g>
	<g>
		<line fill="none" stroke="#204056" stroke-miterlimit="10" x1="343" y1="187.5" x2="342.5" y2="187.5"/>
		
			<line fill="none" stroke="#204056" stroke-miterlimit="10" stroke-dasharray="0.95,1.9" x1="340.6" y1="187.5" x2="324.5" y2="187.5"/>
		<line fill="none" stroke="#204056" stroke-miterlimit="10" x1="323.5" y1="187.5" x2="323" y2="187.5"/>
	</g>
</g>
<g>
	<path fill="#204056" d="M319,206h-8c-1.1,0-2,0.9-2,2v20c0,1.1,0.9,2,2,2h24c1.1,0,2-0.9,2-2v-16c0-1.1-0.9-2-2-2h-14v-2
		C321,206.9,320.1,206,319,206L319,206z M311,214v-6h8v4h16v2H311L311,214z"/>
</g>
<polyline fill="none" stroke="#204056" stroke-miterlimit="10" points="223.5,160 223.5,217.5 309,217.5 "/>
<g enable-background="new    ">
	<path fill="#204056" d="M348.5,219.4v-0.8h2.9v5.6h1.8v0.8h-4.9v-0.8h2v-4.8H348.5z M350.2,216.9v-0.6c0-0.1,0.1-0.3,0.2-0.4
		s0.3-0.2,0.5-0.2s0.3,0.1,0.5,0.2s0.2,0.2,0.2,0.4v0.6c0,0.1-0.1,0.3-0.2,0.4s-0.3,0.2-0.5,0.2s-0.3-0.1-0.5-0.2
		S350.2,217,350.2,216.9z"/>
	<path fill="#204056" d="M358.1,219.4c0.3-0.7,0.7-1,1.4-1c0.8,0,1.3,0.6,1.4,1.8c0,0.2,0,0.5,0,0.7v4.1h-1v-4
		c0-0.8-0.1-1.2-0.2-1.4s-0.2-0.3-0.3-0.3s-0.2,0-0.3,0c-0.3,0-0.6,0.2-0.7,0.6c-0.1,0.2-0.1,0.7-0.1,1.2v4h-0.9v-3.9
		c0-0.9-0.1-1.4-0.3-1.7c-0.1-0.1-0.3-0.2-0.5-0.2s-0.4,0.1-0.5,0.3c-0.3,0.3-0.4,0.8-0.4,1.3v4.2h-1v-6.4h0.8l0.1,0.8
		c0.1-0.3,0.3-0.5,0.5-0.7s0.4-0.3,0.7-0.3s0.6,0.1,0.8,0.3S358,219.1,358.1,219.4z"/>
	<path fill="#204056" d="M366.6,223.8c-0.1,0.3-0.4,0.6-0.7,0.9s-0.7,0.4-1.1,0.4c-0.8,0-1.5-0.3-1.9-0.9s-0.7-1.4-0.7-2.3
		c0-1.2,0.3-2.1,0.9-2.7c0.4-0.4,1-0.6,1.8-0.6s1.3,0.4,1.8,1.1l0-0.9h1.1c0,1-0.1,2.2-0.1,3.8v1.7c0,1.4-0.3,2.3-0.9,2.8
		c-0.4,0.4-1.1,0.6-2,0.7c-0.4,0.1-0.9,0.1-1.5,0.1l-0.1-0.8c0.9,0,1.5-0.1,1.8-0.2s0.6-0.2,0.8-0.3s0.3-0.3,0.4-0.5
		c0.2-0.4,0.3-0.9,0.3-1.7V223.8z M366.1,219.7c-0.1-0.2-0.3-0.3-0.5-0.4s-0.4-0.1-0.7-0.1s-0.5,0-0.7,0.1c-0.4,0.2-0.6,0.5-0.8,0.9
		s-0.2,0.8-0.2,1.3s0,0.7,0.1,1c0.1,0.5,0.2,0.8,0.5,1.1s0.6,0.5,1.1,0.5c0.8,0,1.3-0.3,1.5-1c0.1-0.4,0.2-0.7,0.2-1.1s0-0.7,0-0.9
		s-0.1-0.5-0.2-0.7S366.2,219.9,366.1,219.7z"/>
</g>
<line fill="none" stroke="#204056" stroke-miterlimit="10" x1="323.5" y1="230" x2="323.5" y2="245.5"/>
<g enable-background="new    ">
	<path fill="#59A1C9" d="M350.2,245.1c-0.3,0-0.7-0.1-0.9-0.2s-0.5-0.4-0.6-0.6v2.8l-0.9,0.1v-7.5h0.9v0.7c0.2-0.3,0.4-0.5,0.6-0.6
		s0.6-0.2,0.9-0.2c0.9,0,1.5,0.4,1.9,1.1c0.2,0.5,0.4,1,0.4,1.7c0,1-0.2,1.8-0.7,2.3C351.3,244.9,350.8,245.1,350.2,245.1z
		 M348.7,242.3c0,1.4,0.5,2.1,1.5,2.1c0.9,0,1.4-0.7,1.4-2.1c0-0.8-0.1-1.3-0.4-1.7c-0.2-0.3-0.6-0.5-1-0.5c-0.8,0-1.3,0.5-1.4,1.4
		C348.7,241.8,348.7,242,348.7,242.3z"/>
	<path fill="#59A1C9" d="M358.1,241.8v3.2h-0.9v-3.1c0-0.7-0.1-1.1-0.3-1.4c-0.2-0.2-0.4-0.4-0.8-0.4c-0.4,0-0.7,0.1-0.9,0.4
		c-0.3,0.3-0.4,0.5-0.4,0.8v3.6h-0.9v-7.5l0.9-0.1v2.9c0.4-0.5,1-0.8,1.7-0.8C357.6,239.5,358.1,240.2,358.1,241.8z"/>
	<path fill="#59A1C9" d="M363.7,240.3c0.4,0.5,0.6,1.2,0.6,2s-0.2,1.5-0.6,2c-0.4,0.5-1,0.8-1.7,0.8c-0.4,0-0.7-0.1-1-0.2
		s-0.5-0.3-0.7-0.6c-0.4-0.5-0.6-1.2-0.6-2s0.2-1.5,0.6-2c0.4-0.5,1-0.8,1.7-0.8C362.8,239.5,363.4,239.7,363.7,240.3z M362,244.4
		c0.6,0,1-0.3,1.3-0.9c0.1-0.3,0.2-0.7,0.2-1c0-0.4,0-0.6,0-0.8c-0.1-0.4-0.2-0.8-0.4-1.1c-0.2-0.3-0.6-0.4-1-0.4
		c-0.6,0-1,0.3-1.2,0.9c-0.1,0.3-0.2,0.7-0.2,1.1c0,0.7,0.1,1.2,0.3,1.6C361.1,244.2,361.5,244.4,362,244.4z"/>
	<path fill="#59A1C9" d="M367.8,240.3v2.5c0,0.3,0,0.6,0.1,0.7c0,0.2,0.1,0.3,0.2,0.4c0.1,0.1,0.2,0.2,0.4,0.2s0.4,0.1,0.7,0.1h1
		l0,0.7h-0.9c-0.9,0-1.5-0.2-1.8-0.5c-0.2-0.2-0.3-0.6-0.4-1.1c0-0.2,0-0.5,0-0.8v-2.3h-1.5l0.1-0.7h1.4v-1.8l0.9-0.3v2.1h2.3v0.7
		H367.8z"/>
	<path fill="#59A1C9" d="M375.8,240.3c0.4,0.5,0.6,1.2,0.6,2s-0.2,1.5-0.6,2c-0.4,0.5-1,0.8-1.7,0.8c-0.4,0-0.7-0.1-1-0.2
		s-0.5-0.3-0.7-0.6c-0.4-0.5-0.6-1.2-0.6-2s0.2-1.5,0.6-2c0.4-0.5,1-0.8,1.7-0.8C374.8,239.5,375.4,239.7,375.8,240.3z M374,244.4
		c0.6,0,1-0.3,1.3-0.9c0.1-0.3,0.2-0.7,0.2-1c0-0.4,0-0.6,0-0.8c-0.1-0.4-0.2-0.8-0.4-1.1c-0.2-0.3-0.6-0.4-1-0.4
		c-0.6,0-1,0.3-1.2,0.9c-0.1,0.3-0.2,0.7-0.2,1.1c0,0.7,0.1,1.2,0.3,1.6C373.1,244.2,373.5,244.4,374,244.4z"/>
	<path fill="#59A1C9" d="M381.9,241v0.8h-3.3V241H381.9z"/>
	<path fill="#59A1C9" d="M384.2,238.7c0.4-0.2,1-0.5,1.6-1h0.9v6.6h1.5v0.7h-4.1v-0.7h1.6v-5.6c-0.1,0.1-0.3,0.2-0.7,0.4
		c-0.4,0.2-0.7,0.4-1,0.5V238.7z"/>
	<path fill="#59A1C9" d="M392.7,245h-1.5v-1.5h1.5V245z"/>
	<path fill="#59A1C9" d="M398.2,245.1c-0.3,0-0.7-0.1-0.9-0.2s-0.5-0.4-0.6-0.6v2.8l-0.9,0.1v-7.5h0.9v0.7c0.2-0.3,0.4-0.5,0.6-0.6
		s0.6-0.2,0.9-0.2c0.9,0,1.5,0.4,1.9,1.1c0.2,0.5,0.4,1,0.4,1.7c0,1-0.2,1.8-0.7,2.3C399.3,244.9,398.8,245.1,398.2,245.1z
		 M396.7,242.3c0,1.4,0.5,2.1,1.5,2.1c0.9,0,1.4-0.7,1.4-2.1c0-0.8-0.1-1.3-0.4-1.7c-0.2-0.3-0.6-0.5-1-0.5c-0.8,0-1.3,0.5-1.4,1.4
		C396.7,241.8,396.7,242,396.7,242.3z"/>
	<path fill="#59A1C9" d="M404.5,239.5c1.1,0,1.7,0.7,1.7,2.1v3.4h-0.9v-3.3c0-0.4,0-0.6-0.1-0.8s-0.1-0.3-0.2-0.4
		c-0.2-0.2-0.4-0.3-0.8-0.3c-0.4,0-0.7,0.1-1,0.3s-0.4,0.5-0.4,0.9v3.6H402v-5.4h0.8l0,0.6C403.2,239.7,403.7,239.5,404.5,239.5z"/>
	<path fill="#59A1C9" d="M411.3,244c-0.1,0.3-0.3,0.5-0.6,0.7s-0.6,0.3-0.9,0.3c-0.7,0-1.2-0.3-1.6-0.8c-0.4-0.5-0.6-1.2-0.6-1.9
		c0-1,0.3-1.8,0.8-2.3c0.4-0.4,0.9-0.5,1.5-0.5s1.1,0.3,1.5,0.9l0-0.7h0.9c0,0.8,0,1.9,0,3.2v1.4c0,1.2-0.2,1.9-0.8,2.4
		c-0.4,0.3-0.9,0.5-1.6,0.6c-0.4,0-0.8,0.1-1.3,0.1l-0.1-0.7c0.7,0,1.2,0,1.5-0.1c0.3-0.1,0.5-0.2,0.7-0.3s0.3-0.2,0.4-0.4
		c0.2-0.3,0.3-0.8,0.3-1.4V244z M410.9,240.6c-0.1-0.1-0.2-0.2-0.4-0.3c-0.2-0.1-0.4-0.1-0.6-0.1c-0.2,0-0.4,0-0.6,0.1
		c-0.3,0.1-0.5,0.4-0.6,0.7c-0.1,0.4-0.2,0.7-0.2,1.1c0,0.4,0,0.6,0,0.8c0.1,0.4,0.2,0.7,0.4,1c0.2,0.3,0.5,0.4,0.9,0.4
		c0.6,0,1-0.3,1.3-0.8c0.1-0.3,0.2-0.6,0.2-0.9c0-0.3,0-0.6,0-0.8c0-0.2-0.1-0.4-0.1-0.6C411.1,240.9,411,240.7,410.9,240.6z"/>
</g>
<g>
	<g>
		<line fill="none" stroke="#204056" stroke-miterlimit="10" x1="343" y1="245.5" x2="342.5" y2="245.5"/>
		
			<line fill="none" stroke="#204056" stroke-miterlimit="10" stroke-dasharray="0.95,1.9" x1="340.6" y1="245.5" x2="324.5" y2="245.5"/>
		<line fill="none" stroke="#204056" stroke-miterlimit="10" x1="323.5" y1="245.5" x2="323" y2="245.5"/>
	</g>
</g>
<line fill="none" stroke="#204056" stroke-miterlimit="10" x1="323.5" y1="245" x2="323.5" y2="260.5"/>
<g enable-background="new    ">
	<path fill="#59A1C9" d="M350.2,260.1c-0.3,0-0.7-0.1-0.9-0.2s-0.5-0.4-0.6-0.6v2.8l-0.9,0.1v-7.5h0.9v0.7c0.2-0.3,0.4-0.5,0.6-0.6
		s0.6-0.2,0.9-0.2c0.9,0,1.5,0.4,1.9,1.1c0.2,0.5,0.4,1,0.4,1.7c0,1-0.2,1.8-0.7,2.3C351.3,259.9,350.8,260.1,350.2,260.1z
		 M348.7,257.3c0,1.4,0.5,2.1,1.5,2.1c0.9,0,1.4-0.7,1.4-2.1c0-0.8-0.1-1.3-0.4-1.7c-0.2-0.3-0.6-0.5-1-0.5c-0.8,0-1.3,0.5-1.4,1.4
		C348.7,256.8,348.7,257,348.7,257.3z"/>
	<path fill="#59A1C9" d="M358.1,256.8v3.2h-0.9v-3.1c0-0.7-0.1-1.1-0.3-1.4c-0.2-0.2-0.4-0.4-0.8-0.4c-0.4,0-0.7,0.1-0.9,0.4
		c-0.3,0.3-0.4,0.5-0.4,0.8v3.6h-0.9v-7.5l0.9-0.1v2.9c0.4-0.5,1-0.8,1.7-0.8C357.6,254.5,358.1,255.2,358.1,256.8z"/>
	<path fill="#59A1C9" d="M363.7,255.3c0.4,0.5,0.6,1.2,0.6,2s-0.2,1.5-0.6,2c-0.4,0.5-1,0.8-1.7,0.8c-0.4,0-0.7-0.1-1-0.2
		s-0.5-0.3-0.7-0.6c-0.4-0.5-0.6-1.2-0.6-2s0.2-1.5,0.6-2c0.4-0.5,1-0.8,1.7-0.8C362.8,254.5,363.4,254.7,363.7,255.3z M362,259.4
		c0.6,0,1-0.3,1.3-0.9c0.1-0.3,0.2-0.7,0.2-1c0-0.4,0-0.6,0-0.8c-0.1-0.4-0.2-0.8-0.4-1.1c-0.2-0.3-0.6-0.4-1-0.4
		c-0.6,0-1,0.3-1.2,0.9c-0.1,0.3-0.2,0.7-0.2,1.1c0,0.7,0.1,1.2,0.3,1.6C361.1,259.2,361.5,259.4,362,259.4z"/>
	<path fill="#59A1C9" d="M367.8,255.3v2.5c0,0.3,0,0.6,0.1,0.7c0,0.2,0.1,0.3,0.2,0.4c0.1,0.1,0.2,0.2,0.4,0.2s0.4,0.1,0.7,0.1h1
		l0,0.7h-0.9c-0.9,0-1.5-0.2-1.8-0.5c-0.2-0.2-0.3-0.6-0.4-1.1c0-0.2,0-0.5,0-0.8v-2.3h-1.5l0.1-0.7h1.4v-1.8l0.9-0.3v2.1h2.3v0.7
		H367.8z"/>
	<path fill="#59A1C9" d="M375.8,255.3c0.4,0.5,0.6,1.2,0.6,2s-0.2,1.5-0.6,2c-0.4,0.5-1,0.8-1.7,0.8c-0.4,0-0.7-0.1-1-0.2
		s-0.5-0.3-0.7-0.6c-0.4-0.5-0.6-1.2-0.6-2s0.2-1.5,0.6-2c0.4-0.5,1-0.8,1.7-0.8C374.8,254.5,375.4,254.7,375.8,255.3z M374,259.4
		c0.6,0,1-0.3,1.3-0.9c0.1-0.3,0.2-0.7,0.2-1c0-0.4,0-0.6,0-0.8c-0.1-0.4-0.2-0.8-0.4-1.1c-0.2-0.3-0.6-0.4-1-0.4
		c-0.6,0-1,0.3-1.2,0.9c-0.1,0.3-0.2,0.7-0.2,1.1c0,0.7,0.1,1.2,0.3,1.6C373.1,259.2,373.5,259.4,374,259.4z"/>
	<path fill="#59A1C9" d="M381.9,256v0.8h-3.3V256H381.9z"/>
	<path fill="#59A1C9" d="M383.9,253.2c0.3-0.2,0.5-0.4,0.8-0.4c0.3-0.1,0.6-0.1,1-0.1c0.7,0,1.2,0.2,1.6,0.6
		c0.4,0.4,0.6,0.9,0.6,1.5c0,0.5-0.1,0.9-0.3,1.3c-0.2,0.4-0.4,0.7-0.6,0.9c-0.2,0.2-0.3,0.4-0.4,0.5l-1.7,2h3.1v0.7H384v-0.9
		l2.1-2.6c0.4-0.5,0.7-0.9,0.8-1.3c0-0.2,0.1-0.3,0.1-0.5c0-0.4-0.1-0.7-0.3-0.9c-0.2-0.2-0.5-0.3-0.8-0.3s-0.6,0-0.9,0.1
		c-0.2,0.1-0.4,0.2-0.7,0.4L383.9,253.2z"/>
	<path fill="#59A1C9" d="M392.7,260h-1.5v-1.5h1.5V260z"/>
	<path fill="#59A1C9" d="M398.2,260.1c-0.3,0-0.7-0.1-0.9-0.2s-0.5-0.4-0.6-0.6v2.8l-0.9,0.1v-7.5h0.9v0.7c0.2-0.3,0.4-0.5,0.6-0.6
		s0.6-0.2,0.9-0.2c0.9,0,1.5,0.4,1.9,1.1c0.2,0.5,0.4,1,0.4,1.7c0,1-0.2,1.8-0.7,2.3C399.3,259.9,398.8,260.1,398.2,260.1z
		 M396.7,257.3c0,1.4,0.5,2.1,1.5,2.1c0.9,0,1.4-0.7,1.4-2.1c0-0.8-0.1-1.3-0.4-1.7c-0.2-0.3-0.6-0.5-1-0.5c-0.8,0-1.3,0.5-1.4,1.4
		C396.7,256.8,396.7,257,396.7,257.3z"/>
	<path fill="#59A1C9" d="M404.5,254.5c1.1,0,1.7,0.7,1.7,2.1v3.4h-0.9v-3.3c0-0.4,0-0.6-0.1-0.8s-0.1-0.3-0.2-0.4
		c-0.2-0.2-0.4-0.3-0.8-0.3c-0.4,0-0.7,0.1-1,0.3s-0.4,0.5-0.4,0.9v3.6H402v-5.4h0.8l0,0.6C403.2,254.7,403.7,254.5,404.5,254.5z"/>
	<path fill="#59A1C9" d="M411.3,259c-0.1,0.3-0.3,0.5-0.6,0.7s-0.6,0.3-0.9,0.3c-0.7,0-1.2-0.3-1.6-0.8c-0.4-0.5-0.6-1.2-0.6-1.9
		c0-1,0.3-1.8,0.8-2.3c0.4-0.4,0.9-0.5,1.5-0.5s1.1,0.3,1.5,0.9l0-0.7h0.9c0,0.8,0,1.9,0,3.2v1.4c0,1.2-0.2,1.9-0.8,2.4
		c-0.4,0.3-0.9,0.5-1.6,0.6c-0.4,0-0.8,0.1-1.3,0.1l-0.1-0.7c0.7,0,1.2,0,1.5-0.1c0.3-0.1,0.5-0.2,0.7-0.3s0.3-0.2,0.4-0.4
		c0.2-0.3,0.3-0.8,0.3-1.4V259z M410.9,255.6c-0.1-0.1-0.2-0.2-0.4-0.3c-0.2-0.1-0.4-0.1-0.6-0.1c-0.2,0-0.4,0-0.6,0.1
		c-0.3,0.1-0.5,0.4-0.6,0.7c-0.1,0.4-0.2,0.7-0.2,1.1c0,0.4,0,0.6,0,0.8c0.1,0.4,0.2,0.7,0.4,1c0.2,0.3,0.5,0.4,0.9,0.4
		c0.6,0,1-0.3,1.3-0.8c0.1-0.3,0.2-0.6,0.2-0.9c0-0.3,0-0.6,0-0.8c0-0.2-0.1-0.4-0.1-0.6C411.1,255.9,411,255.7,410.9,255.6z"/>
</g>
<g>
	<g>
		<line fill="none" stroke="#204056" stroke-miterlimit="10" x1="343" y1="260.5" x2="342.5" y2="260.5"/>
		
			<line fill="none" stroke="#204056" stroke-miterlimit="10" stroke-dasharray="0.95,1.9" x1="340.6" y1="260.5" x2="324.5" y2="260.5"/>
		<line fill="none" stroke="#204056" stroke-miterlimit="10" x1="323.5" y1="260.5" x2="323" y2="260.5"/>
	</g>
</g>
<g>
	<path fill="#204056" d="M319,294h-8c-1.1,0-2,0.9-2,2v20c0,1.1,0.9,2,2,2h24c1.1,0,2-0.9,2-2v-16c0-1.1-0.9-2-2-2h-14v-2
		C321,294.9,320.1,294,319,294L319,294z M311,302v-6h8v4h16v2H311L311,302z"/>
</g>
<polyline fill="none" stroke="#204056" stroke-miterlimit="10" points="223.5,218 223.5,305.5 309,305.5 "/>
<g enable-background="new    ">
	<path fill="#204056" d="M350.8,313.1c-0.4,0-0.8-0.1-1.1-0.3s-0.6-0.4-0.7-0.7v3.3l-1.1,0.1v-9h1.1v0.9c0.2-0.3,0.4-0.6,0.8-0.8
		s0.7-0.3,1.1-0.3c1.1,0,1.8,0.4,2.3,1.3c0.3,0.6,0.4,1.2,0.4,2c0,1.2-0.3,2.2-0.9,2.8C352.2,312.9,351.6,313.1,350.8,313.1z
		 M349,309.7c0,1.7,0.6,2.6,1.8,2.6c1.1,0,1.6-0.9,1.6-2.6c0-1-0.1-1.6-0.4-2s-0.7-0.6-1.2-0.6c-1,0-1.6,0.6-1.7,1.7
		C349,309.2,349,309.4,349,309.7z"/>
	<path fill="#204056" d="M359.2,308.6c0-0.9-0.4-1.4-1.2-1.4c-0.4,0-0.8,0-1.2,0.1s-0.8,0.2-0.9,0.2l-0.3-0.8
		c0.8-0.3,1.6-0.4,2.3-0.4s1.3,0.2,1.7,0.5s0.6,0.8,0.6,1.5v4.6h-0.9l-0.1-0.7c-0.2,0.3-0.6,0.5-1,0.6s-0.8,0.3-1.2,0.3
		c-0.5,0-1-0.2-1.4-0.5s-0.5-0.8-0.5-1.4s0.2-1,0.7-1.3c0.3-0.2,0.7-0.3,1-0.4s0.8-0.1,1.4-0.2l0.9-0.1V308.6z M359.2,311.6v-1.6
		l-0.9,0.1c-0.6,0.1-1,0.2-1.3,0.3c-0.5,0.2-0.8,0.5-0.8,1c0,0.3,0.1,0.6,0.3,0.8s0.4,0.3,0.8,0.3
		C358,312.4,358.7,312.1,359.2,311.6z"/>
	<path fill="#204056" d="M366.6,311.8c-0.1,0.3-0.4,0.6-0.7,0.9s-0.7,0.4-1.1,0.4c-0.8,0-1.5-0.3-1.9-0.9s-0.7-1.4-0.7-2.3
		c0-1.2,0.3-2.1,0.9-2.7c0.4-0.4,1-0.6,1.8-0.6s1.3,0.4,1.8,1.1l0-0.9h1.1c0,1-0.1,2.2-0.1,3.8v1.7c0,1.4-0.3,2.3-0.9,2.8
		c-0.4,0.4-1.1,0.6-2,0.7c-0.4,0.1-0.9,0.1-1.5,0.1l-0.1-0.8c0.9,0,1.5-0.1,1.8-0.2s0.6-0.2,0.8-0.3s0.3-0.3,0.4-0.5
		c0.2-0.4,0.3-0.9,0.3-1.7V311.8z M366.1,307.7c-0.1-0.2-0.3-0.3-0.5-0.4s-0.4-0.1-0.7-0.1s-0.5,0-0.7,0.1c-0.4,0.2-0.6,0.5-0.8,0.9
		s-0.2,0.8-0.2,1.3s0,0.7,0.1,1c0.1,0.5,0.2,0.8,0.5,1.1s0.6,0.5,1.1,0.5c0.8,0,1.3-0.3,1.5-1c0.1-0.4,0.2-0.7,0.2-1.1s0-0.7,0-0.9
		s-0.1-0.5-0.2-0.7S366.2,307.9,366.1,307.7z"/>
	<path fill="#204056" d="M371,312.7c-0.4-0.3-0.8-0.7-1-1.2s-0.3-1.1-0.3-1.7s0.1-1.2,0.3-1.7s0.5-0.9,0.9-1.2s0.8-0.5,1.3-0.5
		c0.9,0,1.6,0.3,2,0.9s0.6,1.4,0.6,2.3v0.4h-4.1c0,0.7,0.2,1.2,0.5,1.7s0.8,0.7,1.4,0.7c0.4,0,1-0.3,1.7-0.7l0.4,0.7
		c-0.5,0.5-1.2,0.8-2.1,0.8C372,313.1,371.4,313,371,312.7z M373.8,309.2c-0.1-1.3-0.5-2-1.4-2c-1,0-1.5,0.7-1.6,2H373.8z"/>
	<path fill="#204056" d="M381.4,310c0.3,0.3,0.4,0.7,0.4,1.3s-0.2,1-0.6,1.4s-1,0.5-1.6,0.5c-0.5,0-0.9-0.1-1.3-0.2s-0.8-0.3-1-0.4
		l0.3-0.8c0.2,0.1,0.4,0.2,0.8,0.3s0.7,0.2,1.2,0.2s0.7-0.1,1-0.3s0.4-0.4,0.4-0.7s-0.1-0.5-0.2-0.7s-0.4-0.3-0.7-0.4l-1.1-0.3
		c-0.6-0.2-1-0.4-1.3-0.7s-0.3-0.7-0.3-1.1s0.2-0.9,0.5-1.2s0.9-0.6,1.6-0.6h0.1c0.8,0,1.4,0.1,2,0.4l-0.2,0.8
		c-0.6-0.2-1.1-0.4-1.7-0.4c-0.4,0-0.7,0.1-0.9,0.3s-0.3,0.4-0.3,0.7s0.1,0.5,0.2,0.6s0.3,0.2,0.7,0.3l1.1,0.3
		C380.7,309.5,381.1,309.7,381.4,310z"/>
</g>
<line fill="none" stroke="#204056" stroke-miterlimit="10" x1="323.5" y1="318" x2="323.5" y2="333.5"/>
<g enable-background="new    ">
	<path fill="#59A1C9" d="M351.1,329.3c0-0.8-0.3-1.1-1-1.1c-0.3,0-0.6,0-1,0.1c-0.4,0.1-0.6,0.1-0.8,0.2l-0.2-0.7
		c0.7-0.2,1.3-0.3,1.9-0.3s1.1,0.1,1.4,0.4s0.5,0.7,0.5,1.2v3.9h-0.7l-0.1-0.6c-0.2,0.2-0.5,0.4-0.8,0.5c-0.3,0.1-0.6,0.2-1,0.2
		c-0.5,0-0.8-0.1-1.1-0.4c-0.3-0.3-0.4-0.7-0.4-1.2c0-0.5,0.2-0.9,0.6-1.1c0.3-0.2,0.5-0.3,0.8-0.3c0.3-0.1,0.7-0.1,1.2-0.2l0.7-0.1
		V329.3z M351.1,331.8v-1.4l-0.7,0.1c-0.5,0.1-0.9,0.1-1.1,0.2c-0.4,0.2-0.7,0.4-0.7,0.8c0,0.3,0.1,0.5,0.2,0.6s0.4,0.2,0.6,0.2
		C350.2,332.5,350.7,332.2,351.1,331.8z"/>
	<path fill="#59A1C9" d="M354.7,328.4c0.4-0.6,0.9-0.9,1.6-0.9c0.7,0,1.2,0.3,1.6,0.8c0.3,0.5,0.5,1.2,0.5,2c0,1-0.2,1.8-0.7,2.3
		c-0.4,0.4-0.8,0.6-1.4,0.6c-0.4,0-0.7-0.1-0.9-0.2c-0.2-0.1-0.4-0.4-0.6-0.6l0,0.7h-0.9v-7.5l0.9-0.1V328.4z M354.8,331
		c0.1,0.5,0.2,0.8,0.4,1.1c0.2,0.3,0.5,0.4,1,0.4c0.6,0,1-0.3,1.2-0.9c0.1-0.3,0.2-0.7,0.2-1c0-0.4,0-0.6,0-0.8
		c0-0.5-0.2-0.8-0.4-1.1c-0.2-0.3-0.5-0.4-1-0.4c-0.7,0-1.2,0.4-1.3,1.1c-0.1,0.3-0.1,0.6-0.1,0.9
		C354.7,330.5,354.7,330.8,354.8,331z"/>
	<path fill="#59A1C9" d="M363.7,328.3c0.4,0.5,0.6,1.2,0.6,2s-0.2,1.5-0.6,2c-0.4,0.5-1,0.8-1.7,0.8c-0.4,0-0.7-0.1-1-0.2
		s-0.5-0.3-0.7-0.6c-0.4-0.5-0.6-1.2-0.6-2s0.2-1.5,0.6-2c0.4-0.5,1-0.8,1.7-0.8C362.8,327.5,363.4,327.7,363.7,328.3z M362,332.4
		c0.6,0,1-0.3,1.3-0.9c0.1-0.3,0.2-0.7,0.2-1c0-0.4,0-0.6,0-0.8c-0.1-0.4-0.2-0.8-0.4-1.1c-0.2-0.3-0.6-0.4-1-0.4
		c-0.6,0-1,0.3-1.2,0.9c-0.1,0.3-0.2,0.7-0.2,1.1c0,0.7,0.1,1.2,0.3,1.6C361.1,332.2,361.5,332.4,362,332.4z"/>
	<path fill="#59A1C9" d="M370.1,331.3c0,1.2-0.7,1.9-2.1,1.9s-2.1-0.6-2.1-1.9v-3.6h0.9v3.7c0,0.4,0.1,0.7,0.3,0.8s0.5,0.3,0.9,0.3
		s0.7-0.1,0.9-0.3s0.3-0.5,0.3-0.8v-3.7h0.9V331.3z"/>
	<path fill="#59A1C9" d="M373.9,328.3v2.5c0,0.3,0,0.6,0.1,0.7c0,0.2,0.1,0.3,0.2,0.4c0.1,0.1,0.2,0.2,0.4,0.2s0.4,0.1,0.7,0.1h1
		l0,0.7h-0.9c-0.9,0-1.5-0.2-1.8-0.5c-0.2-0.2-0.3-0.6-0.4-1.1c0-0.2,0-0.5,0-0.8v-2.3h-1.5l0.1-0.7h1.4v-1.8l0.9-0.3v2.1h2.3v0.7
		H373.9z"/>
	<path fill="#59A1C9" d="M380.7,333h-1.5v-1.5h1.5V333z"/>
	<path fill="#59A1C9" d="M388.1,329.8v3.2h-0.9v-3.1c0-0.7-0.1-1.1-0.3-1.4c-0.2-0.2-0.4-0.4-0.8-0.4c-0.4,0-0.7,0.1-1,0.4
		c-0.3,0.3-0.4,0.5-0.4,0.8v3.6h-0.9v-7.5l0.9-0.1v2.9c0.4-0.5,1-0.8,1.7-0.8C387.6,327.5,388.1,328.2,388.1,329.8z"/>
	<path fill="#59A1C9" d="M391.9,328.3v2.5c0,0.3,0,0.6,0.1,0.7c0,0.2,0.1,0.3,0.2,0.4c0.1,0.1,0.2,0.2,0.4,0.2s0.4,0.1,0.7,0.1h1
		l0,0.7h-0.9c-0.9,0-1.5-0.2-1.8-0.5c-0.2-0.2-0.3-0.6-0.4-1.1c0-0.2,0-0.5,0-0.8v-2.3h-1.5l0.1-0.7h1.4v-1.8l0.9-0.3v2.1h2.3v0.7
		H391.9z"/>
	<path fill="#59A1C9" d="M398.3,328.3c0.2-0.6,0.6-0.8,1.1-0.8c0.7,0,1.1,0.5,1.2,1.5c0,0.2,0,0.4,0,0.6v3.4h-0.8v-3.3
		c0-0.6,0-1-0.1-1.2c-0.1-0.2-0.2-0.2-0.2-0.3c-0.1,0-0.1,0-0.2,0c-0.3,0-0.5,0.2-0.6,0.5c-0.1,0.2-0.1,0.5-0.1,1v3.3h-0.7v-3.3
		c0-0.7-0.1-1.2-0.3-1.4c-0.1-0.1-0.2-0.2-0.4-0.2c-0.2,0-0.3,0.1-0.4,0.2c-0.2,0.3-0.3,0.6-0.3,1.1v3.5h-0.8v-5.4h0.7l0.1,0.7
		c0.1-0.2,0.2-0.5,0.4-0.6c0.2-0.2,0.4-0.3,0.6-0.3c0.2,0,0.5,0.1,0.6,0.2C398.1,327.8,398.2,328.1,398.3,328.3z"/>
	<path fill="#59A1C9" d="M406.1,333h-0.7c-0.6,0-1.1-0.1-1.3-0.2c-0.2-0.1-0.3-0.2-0.4-0.3c-0.2-0.3-0.4-0.8-0.4-1.7V326h-1.6v-0.7
		h2.5v5.5c0,0.6,0.1,1,0.2,1.2c0.1,0.1,0.3,0.2,0.4,0.3c0.2,0,0.4,0,0.5,0h0.8L406.1,333z"/>
</g>
<g>
	<g>
		<line fill="none" stroke="#204056" stroke-miterlimit="10" x1="343" y1="333.5" x2="342.5" y2="333.5"/>
		
			<line fill="none" stroke="#204056" stroke-miterlimit="10" stroke-dasharray="0.95,1.9" x1="340.6" y1="333.5" x2="324.5" y2="333.5"/>
		<line fill="none" stroke="#204056" stroke-miterlimit="10" x1="323.5" y1="333.5" x2="323" y2="333.5"/>
	</g>
</g>
<line fill="none" stroke="#204056" stroke-miterlimit="10" x1="323.5" y1="333" x2="323.5" y2="348.5"/>
<g enable-background="new    ">
	<path fill="#59A1C9" d="M351.9,347.6c-0.3,0.3-0.8,0.5-1.5,0.5c-0.4,0-0.8-0.1-1.1-0.2c-0.3-0.2-0.6-0.4-0.8-0.6
		c-0.4-0.5-0.7-1.2-0.7-2c0-0.5,0.1-1,0.3-1.4c0.2-0.4,0.5-0.8,0.9-1s0.9-0.4,1.5-0.4s1,0.2,1.4,0.5l-0.2,0.6
		c-0.4-0.3-0.8-0.4-1.3-0.4s-0.9,0.2-1.2,0.6c-0.3,0.4-0.5,0.9-0.5,1.5c0,0.6,0.2,1.1,0.5,1.5c0.3,0.4,0.7,0.6,1.2,0.6
		c0.5,0,0.9-0.1,1.3-0.4L351.9,347.6z"/>
	<path fill="#59A1C9" d="M357.7,343.3c0.4,0.5,0.6,1.2,0.6,2s-0.2,1.5-0.6,2c-0.4,0.5-1,0.8-1.7,0.8c-0.4,0-0.7-0.1-1-0.2
		s-0.5-0.3-0.7-0.6c-0.4-0.5-0.6-1.2-0.6-2s0.2-1.5,0.6-2c0.4-0.5,1-0.8,1.7-0.8C356.8,342.5,357.4,342.7,357.7,343.3z M356,347.4
		c0.6,0,1-0.3,1.3-0.9c0.1-0.3,0.2-0.7,0.2-1c0-0.4,0-0.6,0-0.8c-0.1-0.4-0.2-0.8-0.4-1.1c-0.2-0.3-0.6-0.4-1-0.4
		c-0.6,0-1,0.3-1.2,0.9c-0.1,0.3-0.2,0.7-0.2,1.1c0,0.7,0.1,1.2,0.3,1.6C355.1,347.2,355.5,347.4,356,347.4z"/>
	<path fill="#59A1C9" d="M362.5,342.5c1.1,0,1.7,0.7,1.7,2.1v3.4h-0.9v-3.3c0-0.4,0-0.6-0.1-0.8s-0.1-0.3-0.2-0.4
		c-0.2-0.2-0.4-0.3-0.8-0.3c-0.4,0-0.7,0.1-1,0.3s-0.4,0.5-0.4,0.9v3.6H360v-5.4h0.8l0,0.6C361.2,342.7,361.7,342.5,362.5,342.5z"/>
	<path fill="#59A1C9" d="M367.8,343.3v2.5c0,0.3,0,0.6,0.1,0.7c0,0.2,0.1,0.3,0.2,0.4c0.1,0.1,0.2,0.2,0.4,0.2s0.4,0.1,0.7,0.1h1
		l0,0.7h-0.9c-0.9,0-1.5-0.2-1.8-0.5c-0.2-0.2-0.3-0.6-0.4-1.1c0-0.2,0-0.5,0-0.8v-2.3h-1.5l0.1-0.7h1.4v-1.8l0.9-0.3v2.1h2.3v0.7
		H367.8z"/>
	<path fill="#59A1C9" d="M375.1,344.3c0-0.8-0.3-1.1-1-1.1c-0.3,0-0.6,0-1,0.1c-0.4,0.1-0.6,0.1-0.8,0.2l-0.2-0.7
		c0.7-0.2,1.3-0.3,1.9-0.3s1.1,0.1,1.4,0.4s0.5,0.7,0.5,1.2v3.9h-0.7l-0.1-0.6c-0.2,0.2-0.5,0.4-0.8,0.5c-0.3,0.1-0.6,0.2-1,0.2
		c-0.5,0-0.8-0.1-1.1-0.4c-0.3-0.3-0.4-0.7-0.4-1.2c0-0.5,0.2-0.9,0.6-1.1c0.3-0.2,0.5-0.3,0.8-0.3c0.3-0.1,0.7-0.1,1.2-0.2l0.7-0.1
		V344.3z M375.1,346.8v-1.4l-0.7,0.1c-0.5,0.1-0.9,0.1-1.1,0.2c-0.4,0.2-0.7,0.4-0.7,0.8c0,0.3,0.1,0.5,0.2,0.6s0.4,0.2,0.6,0.2
		C374.2,347.5,374.7,347.2,375.1,346.8z"/>
	<path fill="#59A1C9" d="M381.9,347.6c-0.3,0.3-0.8,0.5-1.5,0.5c-0.4,0-0.8-0.1-1.1-0.2c-0.3-0.2-0.6-0.4-0.8-0.6
		c-0.4-0.5-0.7-1.2-0.7-2c0-0.5,0.1-1,0.3-1.4c0.2-0.4,0.5-0.8,0.9-1s0.9-0.4,1.5-0.4s1,0.2,1.4,0.5l-0.2,0.6
		c-0.4-0.3-0.8-0.4-1.3-0.4s-0.9,0.2-1.2,0.6c-0.3,0.4-0.5,0.9-0.5,1.5c0,0.6,0.2,1.1,0.5,1.5c0.3,0.4,0.7,0.6,1.2,0.6
		c0.5,0,0.9-0.1,1.3-0.4L381.9,347.6z"/>
	<path fill="#59A1C9" d="M385.9,343.3v2.5c0,0.3,0,0.6,0.1,0.7c0,0.2,0.1,0.3,0.2,0.4c0.1,0.1,0.2,0.2,0.4,0.2s0.4,0.1,0.7,0.1h1
		l0,0.7h-0.9c-0.9,0-1.5-0.2-1.8-0.5c-0.2-0.2-0.3-0.6-0.4-1.1c0-0.2,0-0.5,0-0.8v-2.3h-1.5l0.1-0.7h1.4v-1.8l0.9-0.3v2.1h2.3v0.7
		H385.9z"/>
	<path fill="#59A1C9" d="M392.7,348h-1.5v-1.5h1.5V348z"/>
	<path fill="#59A1C9" d="M400.1,344.8v3.2h-0.9v-3.1c0-0.7-0.1-1.1-0.3-1.4c-0.2-0.2-0.4-0.4-0.8-0.4c-0.4,0-0.7,0.1-1,0.4
		c-0.3,0.3-0.4,0.5-0.4,0.8v3.6h-0.9v-7.5l0.9-0.1v2.9c0.4-0.5,1-0.8,1.7-0.8C399.6,342.5,400.1,343.2,400.1,344.8z"/>
	<path fill="#59A1C9" d="M403.9,343.3v2.5c0,0.3,0,0.6,0.1,0.7c0,0.2,0.1,0.3,0.2,0.4c0.1,0.1,0.2,0.2,0.4,0.2s0.4,0.1,0.7,0.1h1
		l0,0.7h-0.9c-0.9,0-1.5-0.2-1.8-0.5c-0.2-0.2-0.3-0.6-0.4-1.1c0-0.2,0-0.5,0-0.8v-2.3h-1.5l0.1-0.7h1.4v-1.8l0.9-0.3v2.1h2.3v0.7
		H403.9z"/>
	<path fill="#59A1C9" d="M410.3,343.3c0.2-0.6,0.6-0.8,1.1-0.8c0.7,0,1.1,0.5,1.2,1.5c0,0.2,0,0.4,0,0.6v3.4h-0.8v-3.3
		c0-0.6,0-1-0.1-1.2c-0.1-0.2-0.2-0.2-0.2-0.3c-0.1,0-0.1,0-0.2,0c-0.3,0-0.5,0.2-0.6,0.5c-0.1,0.2-0.1,0.5-0.1,1v3.3h-0.7v-3.3
		c0-0.7-0.1-1.2-0.3-1.4c-0.1-0.1-0.2-0.2-0.4-0.2c-0.2,0-0.3,0.1-0.4,0.2c-0.2,0.3-0.3,0.6-0.3,1.1v3.5h-0.8v-5.4h0.7l0.1,0.7
		c0.1-0.2,0.2-0.5,0.4-0.6c0.2-0.2,0.4-0.3,0.6-0.3c0.2,0,0.5,0.1,0.6,0.2C410.1,342.8,410.2,343.1,410.3,343.3z"/>
	<path fill="#59A1C9" d="M418.1,348h-0.7c-0.6,0-1.1-0.1-1.3-0.2c-0.2-0.1-0.3-0.2-0.4-0.3c-0.2-0.3-0.4-0.8-0.4-1.7V341h-1.6v-0.7
		h2.5v5.5c0,0.6,0.1,1,0.2,1.2c0.1,0.1,0.3,0.2,0.4,0.3c0.2,0,0.4,0,0.5,0h0.8L418.1,348z"/>
</g>
<g>
	<g>
		<line fill="none" stroke="#204056" stroke-miterlimit="10" x1="343" y1="348.5" x2="342.5" y2="348.5"/>
		
			<line fill="none" stroke="#204056" stroke-miterlimit="10" stroke-dasharray="0.95,1.9" x1="340.6" y1="348.5" x2="324.5" y2="348.5"/>
		<line fill="none" stroke="#204056" stroke-miterlimit="10" x1="323.5" y1="348.5" x2="323" y2="348.5"/>
	</g>
</g>
<line fill="none" stroke="#204056" stroke-miterlimit="10" x1="323.5" y1="260" x2="323.5" y2="275.5"/>
<g enable-background="new    ">
	<path fill="#59A1C9" d="M350.2,275.1c-0.3,0-0.7-0.1-0.9-0.2s-0.5-0.4-0.6-0.6v2.8l-0.9,0.1v-7.5h0.9v0.7c0.2-0.3,0.4-0.5,0.6-0.6
		s0.6-0.2,0.9-0.2c0.9,0,1.5,0.4,1.9,1.1c0.2,0.5,0.4,1,0.4,1.7c0,1-0.2,1.8-0.7,2.3C351.3,274.9,350.8,275.1,350.2,275.1z
		 M348.7,272.3c0,1.4,0.5,2.1,1.5,2.1c0.9,0,1.4-0.7,1.4-2.1c0-0.8-0.1-1.3-0.4-1.7c-0.2-0.3-0.6-0.5-1-0.5c-0.8,0-1.3,0.5-1.4,1.4
		C348.7,271.8,348.7,272,348.7,272.3z"/>
	<path fill="#59A1C9" d="M358.1,271.8v3.2h-0.9v-3.1c0-0.7-0.1-1.1-0.3-1.4c-0.2-0.2-0.4-0.4-0.8-0.4c-0.4,0-0.7,0.1-0.9,0.4
		c-0.3,0.3-0.4,0.5-0.4,0.8v3.6h-0.9v-7.5l0.9-0.1v2.9c0.4-0.5,1-0.8,1.7-0.8C357.6,269.5,358.1,270.2,358.1,271.8z"/>
	<path fill="#59A1C9" d="M363.7,270.3c0.4,0.5,0.6,1.2,0.6,2s-0.2,1.5-0.6,2c-0.4,0.5-1,0.8-1.7,0.8c-0.4,0-0.7-0.1-1-0.2
		s-0.5-0.3-0.7-0.6c-0.4-0.5-0.6-1.2-0.6-2s0.2-1.5,0.6-2c0.4-0.5,1-0.8,1.7-0.8C362.8,269.5,363.4,269.7,363.7,270.3z M362,274.4
		c0.6,0,1-0.3,1.3-0.9c0.1-0.3,0.2-0.7,0.2-1c0-0.4,0-0.6,0-0.8c-0.1-0.4-0.2-0.8-0.4-1.1c-0.2-0.3-0.6-0.4-1-0.4
		c-0.6,0-1,0.3-1.2,0.9c-0.1,0.3-0.2,0.7-0.2,1.1c0,0.7,0.1,1.2,0.3,1.6C361.1,274.2,361.5,274.4,362,274.4z"/>
	<path fill="#59A1C9" d="M367.8,270.3v2.5c0,0.3,0,0.6,0.1,0.7c0,0.2,0.1,0.3,0.2,0.4c0.1,0.1,0.2,0.2,0.4,0.2s0.4,0.1,0.7,0.1h1
		l0,0.7h-0.9c-0.9,0-1.5-0.2-1.8-0.5c-0.2-0.2-0.3-0.6-0.4-1.1c0-0.2,0-0.5,0-0.8v-2.3h-1.5l0.1-0.7h1.4v-1.8l0.9-0.3v2.1h2.3v0.7
		H367.8z"/>
	<path fill="#59A1C9" d="M375.8,270.3c0.4,0.5,0.6,1.2,0.6,2s-0.2,1.5-0.6,2c-0.4,0.5-1,0.8-1.7,0.8c-0.4,0-0.7-0.1-1-0.2
		s-0.5-0.3-0.7-0.6c-0.4-0.5-0.6-1.2-0.6-2s0.2-1.5,0.6-2c0.4-0.5,1-0.8,1.7-0.8C374.8,269.5,375.4,269.7,375.8,270.3z M374,274.4
		c0.6,0,1-0.3,1.3-0.9c0.1-0.3,0.2-0.7,0.2-1c0-0.4,0-0.6,0-0.8c-0.1-0.4-0.2-0.8-0.4-1.1c-0.2-0.3-0.6-0.4-1-0.4
		c-0.6,0-1,0.3-1.2,0.9c-0.1,0.3-0.2,0.7-0.2,1.1c0,0.7,0.1,1.2,0.3,1.6C373.1,274.2,373.5,274.4,374,274.4z"/>
	<path fill="#59A1C9" d="M381.9,271v0.8h-3.3V271H381.9z"/>
	<path fill="#59A1C9" d="M384.9,274.1c0.3,0.1,0.7,0.2,1.1,0.2s0.7-0.1,1-0.3c0.3-0.2,0.4-0.6,0.4-1c0-0.7-0.4-1.1-1.3-1.3
		c-0.2,0-0.5-0.1-0.8-0.1h-0.5v-0.9l0.5,0c0.9,0,1.4-0.2,1.6-0.6c0.1-0.2,0.1-0.4,0.1-0.6c0-0.3-0.1-0.6-0.3-0.8
		c-0.2-0.2-0.6-0.3-1-0.3c-0.6,0-1.2,0.2-1.7,0.6l-0.3-0.8c0.5-0.4,1.2-0.7,2.1-0.7c0.7,0,1.2,0.2,1.6,0.5s0.6,0.8,0.6,1.3
		s-0.2,0.9-0.5,1.2c-0.3,0.3-0.7,0.4-1.1,0.5c0.5,0.1,0.9,0.3,1.3,0.6s0.6,0.7,0.6,1.3c0,0.8-0.4,1.4-1.1,1.8
		c-0.4,0.2-1,0.3-1.6,0.3c-0.8,0-1.4-0.2-2-0.6l0.3-0.8C384.3,273.8,384.5,273.9,384.9,274.1z"/>
	<path fill="#59A1C9" d="M392.7,275h-1.5v-1.5h1.5V275z"/>
	<path fill="#59A1C9" d="M398.2,275.1c-0.3,0-0.7-0.1-0.9-0.2s-0.5-0.4-0.6-0.6v2.8l-0.9,0.1v-7.5h0.9v0.7c0.2-0.3,0.4-0.5,0.6-0.6
		s0.6-0.2,0.9-0.2c0.9,0,1.5,0.4,1.9,1.1c0.2,0.5,0.4,1,0.4,1.7c0,1-0.2,1.8-0.7,2.3C399.3,274.9,398.8,275.1,398.2,275.1z
		 M396.7,272.3c0,1.4,0.5,2.1,1.5,2.1c0.9,0,1.4-0.7,1.4-2.1c0-0.8-0.1-1.3-0.4-1.7c-0.2-0.3-0.6-0.5-1-0.5c-0.8,0-1.3,0.5-1.4,1.4
		C396.7,271.8,396.7,272,396.7,272.3z"/>
	<path fill="#59A1C9" d="M404.5,269.5c1.1,0,1.7,0.7,1.7,2.1v3.4h-0.9v-3.3c0-0.4,0-0.6-0.1-0.8s-0.1-0.3-0.2-0.4
		c-0.2-0.2-0.4-0.3-0.8-0.3c-0.4,0-0.7,0.1-1,0.3s-0.4,0.5-0.4,0.9v3.6H402v-5.4h0.8l0,0.6C403.2,269.7,403.7,269.5,404.5,269.5z"/>
	<path fill="#59A1C9" d="M411.3,274c-0.1,0.3-0.3,0.5-0.6,0.7s-0.6,0.3-0.9,0.3c-0.7,0-1.2-0.3-1.6-0.8c-0.4-0.5-0.6-1.2-0.6-1.9
		c0-1,0.3-1.8,0.8-2.3c0.4-0.4,0.9-0.5,1.5-0.5s1.1,0.3,1.5,0.9l0-0.7h0.9c0,0.8,0,1.9,0,3.2v1.4c0,1.2-0.2,1.9-0.8,2.4
		c-0.4,0.3-0.9,0.5-1.6,0.6c-0.4,0-0.8,0.1-1.3,0.1l-0.1-0.7c0.7,0,1.2,0,1.5-0.1c0.3-0.1,0.5-0.2,0.7-0.3s0.3-0.2,0.4-0.4
		c0.2-0.3,0.3-0.8,0.3-1.4V274z M410.9,270.6c-0.1-0.1-0.2-0.2-0.4-0.3c-0.2-0.1-0.4-0.1-0.6-0.1c-0.2,0-0.4,0-0.6,0.1
		c-0.3,0.1-0.5,0.4-0.6,0.7c-0.1,0.4-0.2,0.7-0.2,1.1c0,0.4,0,0.6,0,0.8c0.1,0.4,0.2,0.7,0.4,1c0.2,0.3,0.5,0.4,0.9,0.4
		c0.6,0,1-0.3,1.3-0.8c0.1-0.3,0.2-0.6,0.2-0.9c0-0.3,0-0.6,0-0.8c0-0.2-0.1-0.4-0.1-0.6C411.1,270.9,411,270.7,410.9,270.6z"/>
</g>
<g>
	<g>
		<line fill="none" stroke="#204056" stroke-miterlimit="10" x1="343" y1="275.5" x2="342.5" y2="275.5"/>
		
			<line fill="none" stroke="#204056" stroke-miterlimit="10" stroke-dasharray="0.95,1.9" x1="340.6" y1="275.5" x2="324.5" y2="275.5"/>
		<line fill="none" stroke="#204056" stroke-miterlimit="10" x1="323.5" y1="275.5" x2="323" y2="275.5"/>
	</g>
</g>
</svg>
